<?xml version="1.0" encoding="UTF-8"?>
<!DOCTYPE svg PUBLIC "-//W3C//DTD SVG 1.1//EN" "http://www.w3.org/Graphics/SVG/1.1/DTD/svg11.dtd">
<svg xmlns="http://www.w3.org/2000/svg" version="1.1" width="474px" height="434px" style="shape-rendering:geometricPrecision; text-rendering:geometricPrecision; image-rendering:optimizeQuality; fill-rule:evenodd; clip-rule:evenodd" xmlns:xlink="http://www.w3.org/1999/xlink">
<g><path style="opacity:1" fill="#0a0709" d="M 227.5,82.5 C 231.732,85.2216 235.565,88.5549 239,92.5C 243.1,97.724 246.933,103.057 250.5,108.5C 251.441,114.145 252.608,114.479 254,109.5C 256.339,112.176 258.172,115.176 259.5,118.5C 263.906,110.596 269.573,103.763 276.5,98C 281.477,95.1735 286.811,93.6735 292.5,93.5C 292.5,95.1667 292.5,96.8333 292.5,98.5C 291.965,103.312 292.965,107.645 295.5,111.5C 298.681,118.947 303.681,124.947 310.5,129.5C 315.157,135.494 318.49,142.161 320.5,149.5C 320.5,155.167 320.5,160.833 320.5,166.5C 322.5,166.5 324.5,166.5 326.5,166.5C 331.572,167.535 335.905,169.868 339.5,173.5C 339.982,174.416 340.315,175.416 340.5,176.5C 339.21,179.411 338.21,182.411 337.5,185.5C 338.801,191.063 340.467,196.396 342.5,201.5C 343.108,210.744 340.775,219.077 335.5,226.5C 335.5,227.167 335.5,227.833 335.5,228.5C 334.16,232.317 332.326,235.983 330,239.5C 326.958,242.711 323.791,245.711 320.5,248.5C 324.353,252.518 328.019,256.685 331.5,261C 336.684,261.816 341.684,261.65 346.5,260.5C 347.978,260.238 349.311,260.571 350.5,261.5C 349.1,264.035 348.1,266.702 347.5,269.5C 343.534,278.305 337.534,285.472 329.5,291C 323.797,292.506 318.463,294.672 313.5,297.5C 310.081,298.374 306.748,299.54 303.5,301C 294.173,301.5 284.839,301.666 275.5,301.5C 275.334,305.846 275.501,310.179 276,314.5C 276.671,315.252 277.504,315.586 278.5,315.5C 281.352,317.091 284.352,318.424 287.5,319.5C 288.585,321.587 290.251,322.92 292.5,323.5C 295.894,326.616 298.561,330.282 300.5,334.5C 301.493,339.12 301.827,343.786 301.5,348.5C 300.717,350.343 300.05,352.343 299.5,354.5C 298.675,355.386 297.675,355.719 296.5,355.5C 295.29,355.068 294.29,354.401 293.5,353.5C 292.014,351.381 290.014,349.881 287.5,349C 278.99,348.177 270.656,348.343 262.5,349.5C 261.833,349.5 261.5,349.833 261.5,350.5C 255.11,352.039 248.776,351.705 242.5,349.5C 238.859,346.195 235.192,342.862 231.5,339.5C 229.246,338.585 227.246,337.252 225.5,335.5C 222.574,330.271 219.907,330.271 217.5,335.5C 215.326,335.75 213.659,336.75 212.5,338.5C 209.833,339.167 208.167,340.833 207.5,343.5C 203.886,347.101 199.553,349.435 194.5,350.5C 189.13,350.608 183.797,350.275 178.5,349.5C 171.159,349.334 163.826,349.5 156.5,350C 153.401,350.387 150.734,351.554 148.5,353.5C 146.906,353.92 145.406,354.586 144,355.5C 142.588,354.314 141.421,352.981 140.5,351.5C 138.972,332.532 147.305,320.532 165.5,315.5C 165.5,312.167 165.5,308.833 165.5,305.5C 166.434,304.432 166.768,303.099 166.5,301.5C 157.5,301.5 148.5,301.5 139.5,301.5C 139.167,301.5 138.833,301.5 138.5,301.5C 132.668,299.589 127.001,297.089 121.5,294C 118.066,293.442 114.733,292.609 111.5,291.5C 108.527,287.86 105.194,284.527 101.5,281.5C 99.4854,278.131 97.4854,274.798 95.5,271.5C 93.9205,268.341 92.9205,265.007 92.5,261.5C 97.8437,261.666 103.177,261.499 108.5,261C 109.737,260.768 110.737,260.268 111.5,259.5C 111.833,258.5 112.5,257.833 113.5,257.5C 116.416,255.18 118.75,252.346 120.5,249C 116.604,244.613 112.938,240.113 109.5,235.5C 108.184,231.911 107.017,228.244 106,224.5C 105.292,223.619 104.458,222.953 103.5,222.5C 102.342,219.011 101.009,215.678 99.5,212.5C 99.3347,208.818 99.5014,205.152 100,201.5C 101.604,196.19 103.104,190.856 104.5,185.5C 104.286,182.748 103.286,180.414 101.5,178.5C 101.861,174.778 103.528,171.778 106.5,169.5C 111.181,167.12 116.181,166.12 121.5,166.5C 121.5,161.5 121.5,156.5 121.5,151.5C 121.326,147.189 122.326,143.189 124.5,139.5C 129.685,131.804 135.852,124.804 143,118.5C 144.993,116.182 146.159,113.516 146.5,110.5C 148.399,105.006 149.399,99.3392 149.5,93.5C 155.496,94.1564 161.162,95.9898 166.5,99C 172.797,104.454 178.13,110.621 182.5,117.5C 183.549,115.472 184.549,113.472 185.5,111.5C 186.458,111.047 187.292,110.381 188,109.5C 188.639,114.27 189.805,114.603 191.5,110.5C 192.758,108.313 193.758,105.98 194.5,103.5C 199.553,95.6089 205.886,88.7755 213.5,83C 218.098,81.1742 222.764,81.0075 227.5,82.5 Z"/></g>
<g><path style="opacity:1" fill="#e9c13e" d="M 204.5,77.5 C 201.204,81.2976 197.704,84.9643 194,88.5C 193.072,86.6652 191.906,86.3318 190.5,87.5C 189.642,89.9009 188.309,91.9009 186.5,93.5C 186.167,93.5 185.833,93.5 185.5,93.5C 187.14,89.5591 189.306,85.8924 192,82.5C 192.833,83.5 193.667,84.5 194.5,85.5C 197.583,82.4061 200.916,79.7394 204.5,77.5 Z"/></g>
<g><path style="opacity:0.1" fill="#d7a836" d="M 144.5,81.5 C 143.5,81.5 142.5,81.5 141.5,81.5C 141.398,89.5657 140.398,97.2324 138.5,104.5C 139.261,96.5124 139.928,88.5124 140.5,80.5C 142.099,80.2322 143.432,80.5655 144.5,81.5 Z"/></g>
<g><path style="opacity:1" fill="#f9f041" d="M 253.5,88.5 C 253.377,91.5879 254.377,94.2546 256.5,96.5C 251.164,100.349 251.831,101.849 258.5,101C 260.116,101.615 261.449,102.615 262.5,104C 258.375,105.323 254.375,106.823 250.5,108.5C 246.933,103.057 243.1,97.724 239,92.5C 235.565,88.5549 231.732,85.2216 227.5,82.5C 225.257,81.1883 222.59,80.5217 219.5,80.5C 215.703,80.7631 212.036,81.4298 208.5,82.5C 208.5,83.5 208.5,84.5 208.5,85.5C 207.127,85.3433 205.793,85.51 204.5,86C 204.957,86.414 205.291,86.914 205.5,87.5C 202.702,89.1296 200.035,90.9629 197.5,93C 198.337,94.0113 198.67,95.1779 198.5,96.5C 197.167,96.5 195.833,96.5 194.5,96.5C 194.5,98.8333 194.5,101.167 194.5,103.5C 193.115,102.426 191.949,101.093 191,99.5C 189.701,99.9662 188.201,99.9662 186.5,99.5C 186.5,97.5 186.5,95.5 186.5,93.5C 188.309,91.9009 189.642,89.9009 190.5,87.5C 191.906,86.3318 193.072,86.6652 194,88.5C 197.704,84.9643 201.204,81.2976 204.5,77.5C 211.42,71.4132 219.42,69.5799 228.5,72C 235.829,75.4911 242.162,80.3244 247.5,86.5C 250.203,81.6966 252.203,82.3633 253.5,88.5 Z"/></g>
<g><path style="opacity:1" fill="#d9d648" d="M 227.5,82.5 C 222.764,81.0075 218.098,81.1742 213.5,83C 205.886,88.7755 199.553,95.6089 194.5,103.5C 194.5,101.167 194.5,98.8333 194.5,96.5C 195.833,96.5 197.167,96.5 198.5,96.5C 198.67,95.1779 198.337,94.0113 197.5,93C 200.035,90.9629 202.702,89.1296 205.5,87.5C 205.291,86.914 204.957,86.414 204.5,86C 205.793,85.51 207.127,85.3433 208.5,85.5C 208.5,84.5 208.5,83.5 208.5,82.5C 212.036,81.4298 215.703,80.7631 219.5,80.5C 222.59,80.5217 225.257,81.1883 227.5,82.5 Z"/></g>
<g><path style="opacity:1" fill="#edeeef" d="M 244.5,146.5 C 243.883,146.389 243.383,146.056 243,145.5C 242.762,131.877 238.428,119.877 230,109.5C 226.989,107.153 223.989,104.819 221,102.5C 211.543,108.395 205.209,116.728 202,127.5C 200.725,133.383 199.225,139.05 197.5,144.5C 196.662,144.158 196.328,143.492 196.5,142.5C 196.268,136.378 196.935,130.378 198.5,124.5C 202.311,114.512 208.311,106.012 216.5,99C 218.212,97.2491 220.212,96.5825 222.5,97C 237.906,107.984 245.739,122.817 246,141.5C 245.392,143.154 244.892,144.821 244.5,146.5 Z"/></g>
<g><path style="opacity:1" fill="#f8e340" d="M 144.5,81.5 C 147.428,81.5651 150.095,82.2318 152.5,83.5C 163.97,85.068 173.637,90.068 181.5,98.5C 183.082,96.9853 184.416,95.3186 185.5,93.5C 185.833,93.5 186.167,93.5 186.5,93.5C 186.5,95.5 186.5,97.5 186.5,99.5C 188.201,99.9662 189.701,99.9662 191,99.5C 191.949,101.093 193.115,102.426 194.5,103.5C 193.758,105.98 192.758,108.313 191.5,110.5C 189.797,111.66 189.131,110.993 189.5,108.5C 188.167,108.5 186.833,108.5 185.5,108.5C 185.5,109.5 185.5,110.5 185.5,111.5C 184.549,113.472 183.549,115.472 182.5,117.5C 178.13,110.621 172.797,104.454 166.5,99C 161.162,95.9898 155.496,94.1564 149.5,93.5C 149.399,99.3392 148.399,105.006 146.5,110.5C 143.441,111.157 141.941,113.157 142,116.5C 135.201,114.915 134.368,116.082 139.5,120C 138.552,120.483 137.552,120.649 136.5,120.5C 136.5,121.5 136.5,122.5 136.5,123.5C 132.61,123.555 130.443,125.555 130,129.5C 129.517,128.552 129.351,127.552 129.5,126.5C 128.325,126.719 127.325,126.386 126.5,125.5C 127.098,124.205 127.598,122.872 128,121.5C 131.112,118.899 133.612,115.899 135.5,112.5C 136.5,109.833 137.5,107.167 138.5,104.5C 140.398,97.2324 141.398,89.5657 141.5,81.5C 142.5,81.5 143.5,81.5 144.5,81.5 Z"/></g>
<g><path style="opacity:1" fill="#fbf43f" d="M 152.5,83.5 C 152.67,84.8221 152.337,85.9887 151.5,87C 154.199,86.5618 156.865,86.7284 159.5,87.5C 158.05,88.8498 157.383,90.5165 157.5,92.5C 155.173,92.7529 153.173,92.0863 151.5,90.5C 152.729,89.7189 154.062,89.2189 155.5,89C 153.141,88.7922 150.974,88.6256 149,88.5C 148.895,92.37 148.062,96.0366 146.5,99.5C 145.319,97.8647 145.319,96.198 146.5,94.5C 144.993,93.2612 143.826,93.5946 143,95.5C 142.501,91.5138 142.334,87.5138 142.5,83.5C 145.833,83.5 149.167,83.5 152.5,83.5 Z"/></g>
<g><path style="opacity:1" fill="#c1b349" d="M 191.5,110.5 C 189.805,114.603 188.639,114.27 188,109.5C 187.292,110.381 186.458,111.047 185.5,111.5C 185.5,110.5 185.5,109.5 185.5,108.5C 186.833,108.5 188.167,108.5 189.5,108.5C 189.131,110.993 189.797,111.66 191.5,110.5 Z"/></g>
<g><path style="opacity:1" fill="#d8daec" d="M 244.5,146.5 C 244.461,147.583 244.127,148.583 243.5,149.5C 243.846,150.696 244.346,150.696 245,149.5C 248.333,144.833 251.667,140.167 255,135.5C 255.242,144.967 254.075,154.301 251.5,163.5C 249.506,166.161 247.173,168.494 244.5,170.5C 243.683,168.031 243.183,165.365 243,162.5C 242.612,161.572 241.945,160.905 241,160.5C 239.174,162.27 237.008,163.603 234.5,164.5C 233.914,164.291 233.414,163.957 233,163.5C 231.209,158.217 229.542,152.884 228,147.5C 226.483,145.76 224.983,144.094 223.5,142.5C 223.03,141.307 222.03,140.64 220.5,140.5C 214.823,142.012 211.323,145.678 210,151.5C 208.521,156.101 207.354,160.768 206.5,165.5C 205.998,166.521 205.332,166.688 204.5,166C 203.333,164.833 202.167,163.667 201,162.5C 200.027,165.579 199.194,168.579 198.5,171.5C 195.87,169.372 193.37,167.039 191,164.5C 188.033,155.037 186.7,145.37 187,135.5C 190.422,140.678 194.089,145.678 198,150.5C 197.865,148.575 197.698,146.575 197.5,144.5C 199.225,139.05 200.725,133.383 202,127.5C 205.209,116.728 211.543,108.395 221,102.5C 223.989,104.819 226.989,107.153 230,109.5C 238.428,119.877 242.762,131.877 243,145.5C 243.383,146.056 243.883,146.389 244.5,146.5 Z"/></g>
<g><path style="opacity:1" fill="#f5da41" d="M 306.5,112.5 C 308.054,115.98 309.721,119.313 311.5,122.5C 318.556,124.569 319.723,128.236 315,133.5C 314.568,130.928 313.068,129.594 310.5,129.5C 303.681,124.947 298.681,118.947 295.5,111.5C 294.401,107.07 293.401,102.737 292.5,98.5C 292.5,96.8333 292.5,95.1667 292.5,93.5C 286.811,93.6735 281.477,95.1735 276.5,98C 269.573,103.763 263.906,110.596 259.5,118.5C 258.172,115.176 256.339,112.176 254,109.5C 252.608,114.479 251.441,114.145 250.5,108.5C 254.375,106.823 258.375,105.323 262.5,104C 261.449,102.615 260.116,101.615 258.5,101C 251.831,101.849 251.164,100.349 256.5,96.5C 254.377,94.2546 253.377,91.5879 253.5,88.5C 255.824,91.8043 258.157,95.1376 260.5,98.5C 269.507,89.1637 280.507,83.8303 293.5,82.5C 295.961,81.469 298.627,80.8023 301.5,80.5C 302,87.4941 302.5,94.4941 303,101.5C 303.605,105.369 304.771,109.035 306.5,112.5 Z"/></g>
<g><path style="opacity:1" fill="#372f0b" d="M 292.5,98.5 C 293.401,102.737 294.401,107.07 295.5,111.5C 292.965,107.645 291.965,103.312 292.5,98.5 Z"/></g>
<g><path style="opacity:1" fill="#fbf240" d="M 293.5,82.5 C 295.5,82.5 297.5,82.5 299.5,82.5C 301.312,89.1172 300.812,95.4506 298,101.5C 297.667,99.8333 297.333,98.1667 297,96.5C 296.64,98.6079 295.973,100.608 295,102.5C 294.788,99.2423 294.288,96.0757 293.5,93C 288.833,92.3333 284.167,92.3333 279.5,93C 280.888,93.8893 280.722,94.3893 279,94.5C 277.838,93.8132 276.672,93.6466 275.5,94C 274.359,94.7412 274.359,95.5745 275.5,96.5C 274.5,97.1667 273.5,97.8333 272.5,98.5C 270.424,99.0997 268.424,99.433 266.5,99.5C 265.949,101.413 265.782,103.413 266,105.5C 263.558,102.962 263.058,100.128 264.5,97C 268.91,94.9273 273.077,92.4273 277,89.5C 283.275,88.4617 288.775,86.1283 293.5,82.5 Z"/></g>
<g><path style="opacity:1" fill="#d8daea" d="M 307.5,173.5 C 306.554,175.89 305.221,178.056 303.5,180C 305.256,180.14 306.922,179.64 308.5,178.5C 308.461,183.419 306.961,188.086 304,192.5C 298.432,200.094 291.266,205.261 282.5,208C 288.245,202.006 291.412,194.84 292,186.5C 292.812,176.756 292.312,167.089 290.5,157.5C 280.365,154.347 270.532,155.013 261,159.5C 262.754,150.995 263.754,142.328 264,133.5C 264.232,132.263 264.732,131.263 265.5,130.5C 264.578,135.472 264.412,140.472 265,145.5C 267.207,133.602 271.707,122.768 278.5,113C 279.76,111.887 280.927,111.72 282,112.5C 283.777,118.278 286.444,123.611 290,128.5C 294.571,136.97 297.405,145.97 298.5,155.5C 299.002,156.521 299.668,156.688 300.5,156C 302.79,153.921 304.457,151.421 305.5,148.5C 306.192,149.025 306.692,149.692 307,150.5C 307.914,157.452 307.414,164.285 305.5,171C 305.684,172.376 306.351,173.209 307.5,173.5 Z"/></g>
<g><path style="opacity:1" fill="#ebeced" d="M 307.5,173.5 C 306.351,173.209 305.684,172.376 305.5,171C 307.414,164.285 307.914,157.452 307,150.5C 306.692,149.692 306.192,149.025 305.5,148.5C 304.457,151.421 302.79,153.921 300.5,156C 299.668,156.688 299.002,156.521 298.5,155.5C 297.405,145.97 294.571,136.97 290,128.5C 286.444,123.611 283.777,118.278 282,112.5C 280.927,111.72 279.76,111.887 278.5,113C 271.707,122.768 267.207,133.602 265,145.5C 264.412,140.472 264.578,135.472 265.5,130.5C 267.853,119.431 273.853,111.098 283.5,105.5C 285.43,110.122 287.263,114.788 289,119.5C 295.737,128.373 299.737,138.373 301,149.5C 302.927,146.052 304.261,142.385 305,138.5C 313.847,149.606 314.68,161.272 307.5,173.5 Z"/></g>
<g><path style="opacity:1" fill="#f5c83d" d="M 306.5,112.5 C 313.661,117.987 319.328,124.653 323.5,132.5C 324.37,136.85 325.37,141.183 326.5,145.5C 326.597,148.911 324.93,150.245 321.5,149.5C 321.167,149.5 320.833,149.5 320.5,149.5C 318.49,142.161 315.157,135.494 310.5,129.5C 313.068,129.594 314.568,130.928 315,133.5C 319.723,128.236 318.556,124.569 311.5,122.5C 309.721,119.313 308.054,115.98 306.5,112.5 Z"/></g>
<g><path style="opacity:1" fill="#878886" d="M 198.5,124.5 C 196.935,130.378 196.268,136.378 196.5,142.5C 194.853,136.272 195.52,130.272 198.5,124.5 Z"/></g>
<g><path style="opacity:1" fill="#d7d9eb" d="M 178.5,146.5 C 179.437,150.215 180.437,154.048 181.5,158C 181.167,158.5 180.833,159 180.5,159.5C 171.491,155.527 162.157,154.527 152.5,156.5C 148.671,169.766 148.505,183.099 152,196.5C 153.713,200.873 156.213,204.707 159.5,208C 156.983,208.257 154.65,207.59 152.5,206C 149.645,203.969 146.978,201.803 144.5,199.5C 145.847,200.028 147.181,200.195 148.5,200C 144.645,195.726 141.145,191.226 138,186.5C 137.517,185.552 137.351,184.552 137.5,183.5C 139.288,183.785 140.955,183.452 142.5,182.5C 135.204,171.814 133.038,160.148 136,147.5C 137.631,151.121 139.965,154.121 143,156.5C 144.176,150.797 145.509,145.13 147,139.5C 152.053,130.728 156.553,121.728 160.5,112.5C 164.44,114.278 167.273,117.278 169,121.5C 173.214,129.69 175.881,138.357 177,147.5C 178.107,148.712 178.607,148.379 178.5,146.5 Z"/></g>
<g><path style="opacity:1" fill="#f8c939" d="M 146.5,110.5 C 146.159,113.516 144.993,116.182 143,118.5C 135.852,124.804 129.685,131.804 124.5,139.5C 122.983,139.511 121.816,140.177 121,141.5C 120.667,144.167 120.333,146.833 120,149.5C 119.667,149.167 119.333,148.833 119,148.5C 116.155,153.842 114.655,153.342 114.5,147C 114.798,144.152 115.131,141.319 115.5,138.5C 119.733,128.07 126.399,119.403 135.5,112.5C 133.612,115.899 131.112,118.899 128,121.5C 127.598,122.872 127.098,124.205 126.5,125.5C 127.325,126.386 128.325,126.719 129.5,126.5C 129.351,127.552 129.517,128.552 130,129.5C 130.443,125.555 132.61,123.555 136.5,123.5C 136.5,122.5 136.5,121.5 136.5,120.5C 137.552,120.649 138.552,120.483 139.5,120C 134.368,116.082 135.201,114.915 142,116.5C 141.941,113.157 143.441,111.157 146.5,110.5 Z"/></g>
<g><path style="opacity:1" fill="#ebebed" d="M 178.5,146.5 C 178.607,148.379 178.107,148.712 177,147.5C 175.881,138.357 173.214,129.69 169,121.5C 167.273,117.278 164.44,114.278 160.5,112.5C 156.553,121.728 152.053,130.728 147,139.5C 145.509,145.13 144.176,150.797 143,156.5C 139.965,154.121 137.631,151.121 136,147.5C 133.038,160.148 135.204,171.814 142.5,182.5C 140.955,183.452 139.288,183.785 137.5,183.5C 137.351,184.552 137.517,185.552 138,186.5C 141.145,191.226 144.645,195.726 148.5,200C 147.181,200.195 145.847,200.028 144.5,199.5C 138.343,194.031 134.343,187.198 132.5,179C 134.5,179.333 136.5,179.667 138.5,180C 129.335,167.52 128.168,154.354 135,140.5C 135.667,139.833 136.333,139.167 137,138.5C 137.483,142.467 138.816,146.134 141,149.5C 142.655,138.53 146.655,128.53 153,119.5C 155.122,114.927 156.955,110.26 158.5,105.5C 168.665,112.126 175.165,121.459 178,133.5C 178.499,137.821 178.666,142.154 178.5,146.5 Z"/></g>
<g><path style="opacity:1" fill="#b38b3b" d="M 121.5,151.5 C 121.5,156.5 121.5,161.5 121.5,166.5C 116.181,166.12 111.181,167.12 106.5,169.5C 106.414,168.504 106.748,167.671 107.5,167C 111.751,165.805 116.085,165.305 120.5,165.5C 120.181,160.637 120.514,155.97 121.5,151.5 Z"/></g>
<g><path style="opacity:1" fill="#9f7b38" d="M 320.5,149.5 C 320.833,149.5 321.167,149.5 321.5,149.5C 321.5,154.833 321.5,160.167 321.5,165.5C 323.415,165.216 325.081,165.549 326.5,166.5C 324.5,166.5 322.5,166.5 320.5,166.5C 320.5,160.833 320.5,155.167 320.5,149.5 Z"/></g>
<g><path style="opacity:1" fill="#8f91c4" d="M 223.5,142.5 C 224.983,144.094 226.483,145.76 228,147.5C 229.542,152.884 231.209,158.217 233,163.5C 233.414,163.957 233.914,164.291 234.5,164.5C 237.008,163.603 239.174,162.27 241,160.5C 241.945,160.905 242.612,161.572 243,162.5C 243.183,165.365 243.683,168.031 244.5,170.5C 243.751,172.246 242.417,173.246 240.5,173.5C 227.491,169.53 214.491,169.53 201.5,173.5C 199.962,173.547 198.962,172.88 198.5,171.5C 199.194,168.579 200.027,165.579 201,162.5C 202.167,163.667 203.333,164.833 204.5,166C 205.332,166.688 205.998,166.521 206.5,165.5C 207.354,160.768 208.521,156.101 210,151.5C 211.323,145.678 214.823,142.012 220.5,140.5C 222.03,140.64 223.03,141.307 223.5,142.5 Z"/></g>
<g><path style="opacity:1" fill="#9091d0" d="M 223.5,142.5 C 226.047,151.264 228.714,159.931 231.5,168.5C 221.006,168.224 210.673,169.057 200.5,171C 201.276,168.013 202.943,167.18 205.5,168.5C 208.157,166.432 211.157,165.099 214.5,164.5C 214.154,163.304 213.654,163.304 213,164.5C 209.935,157.23 211.101,150.563 216.5,144.5C 217.833,145.833 219.167,147.167 220.5,148.5C 221.681,146.865 221.681,145.198 220.5,143.5C 221.325,142.614 222.325,142.281 223.5,142.5 Z"/></g>
<g><path style="opacity:1" fill="#d5d5db" d="M 283.5,164.5 C 283.5,165.5 283.5,166.5 283.5,167.5C 282.5,167.5 281.5,167.5 280.5,167.5C 273.527,166.536 267.193,168.036 261.5,172C 258.622,174.709 255.956,177.542 253.5,180.5C 251.456,179.644 250.289,178.311 250,176.5C 259.13,166.183 270.297,162.183 283.5,164.5 Z"/></g>
<g><path style="opacity:1" fill="#f8b435" d="M 115.5,138.5 C 115.131,141.319 114.798,144.152 114.5,147C 114.655,153.342 116.155,153.842 119,148.5C 119.333,148.833 119.667,149.167 120,149.5C 120.333,146.833 120.667,144.167 121,141.5C 121.816,140.177 122.983,139.511 124.5,139.5C 122.326,143.189 121.326,147.189 121.5,151.5C 120.514,155.97 120.181,160.637 120.5,165.5C 116.085,165.305 111.751,165.805 107.5,167C 106.748,167.671 106.414,168.504 106.5,169.5C 103.528,171.778 101.861,174.778 101.5,178.5C 100.698,177.048 100.198,175.382 100,173.5C 99.6924,174.308 99.1924,174.975 98.5,175.5C 95.1512,174.17 94.8179,174.67 97.5,177C 96.8742,177.75 96.3742,178.584 96,179.5C 95.3333,178.167 94.6667,178.167 94,179.5C 92.5486,176.628 92.3819,173.628 93.5,170.5C 97.0801,163.603 102.747,159.27 110.5,157.5C 110.535,150.626 112.202,144.293 115.5,138.5 Z"/></g>
<g><path style="opacity:1" fill="#f5b036" d="M 323.5,132.5 C 328.537,139.949 331.204,148.283 331.5,157.5C 339.577,159.586 345.577,164.252 349.5,171.5C 349.5,174.5 349.5,177.5 349.5,180.5C 347.5,180.167 345.5,179.833 343.5,179.5C 344.076,183.112 343.076,186.112 340.5,188.5C 339.853,187.726 339.52,186.726 339.5,185.5C 340.738,183.095 341.738,180.595 342.5,178C 342.586,175.648 341.586,174.148 339.5,173.5C 335.905,169.868 331.572,167.535 326.5,166.5C 325.081,165.549 323.415,165.216 321.5,165.5C 321.5,160.167 321.5,154.833 321.5,149.5C 324.93,150.245 326.597,148.911 326.5,145.5C 325.37,141.183 324.37,136.85 323.5,132.5 Z"/></g>
<g><path style="opacity:1" fill="#dbdae0" d="M 161.5,167.5 C 160.25,167.577 159.417,168.244 159,169.5C 158.506,167.866 158.34,166.199 158.5,164.5C 172.033,162.583 183.366,166.916 192.5,177.5C 191.167,178.5 189.833,179.5 188.5,180.5C 182.019,171.094 173.019,166.76 161.5,167.5 Z"/></g>
<g><path style="opacity:1" fill="#d09238" d="M 339.5,173.5 C 341.586,174.148 342.586,175.648 342.5,178C 341.738,180.595 340.738,183.095 339.5,185.5C 339.52,186.726 339.853,187.726 340.5,188.5C 341.91,192.704 342.577,197.037 342.5,201.5C 340.467,196.396 338.801,191.063 337.5,185.5C 338.21,182.411 339.21,179.411 340.5,176.5C 340.315,175.416 339.982,174.416 339.5,173.5 Z"/></g>
<g><path style="opacity:1" fill="#f99f2f" d="M 349.5,171.5 C 350.864,173.22 351.864,175.22 352.5,177.5C 351.408,180.024 350.074,182.357 348.5,184.5C 347.789,189.419 348.289,194.419 350,199.5C 350.667,203.5 350.667,207.5 350,211.5C 348.647,210.315 347.48,208.981 346.5,207.5C 345.692,209.423 345.192,211.423 345,213.5C 344.472,209.301 343.639,205.301 342.5,201.5C 342.577,197.037 341.91,192.704 340.5,188.5C 343.076,186.112 344.076,183.112 343.5,179.5C 345.5,179.833 347.5,180.167 349.5,180.5C 349.5,177.5 349.5,174.5 349.5,171.5 Z"/></g>
<g><path style="opacity:1" fill="#f19e33" d="M 93.5,170.5 C 92.3819,173.628 92.5486,176.628 94,179.5C 94.6667,178.167 95.3333,178.167 96,179.5C 96.3742,178.584 96.8742,177.75 97.5,177C 94.8179,174.67 95.1512,174.17 98.5,175.5C 99.1924,174.975 99.6924,174.308 100,173.5C 100.198,175.382 100.698,177.048 101.5,178.5C 103.286,180.414 104.286,182.748 104.5,185.5C 103.104,190.856 101.604,196.19 100,201.5C 99.5014,205.152 99.3347,208.818 99.5,212.5C 99.1667,212.5 98.8333,212.5 98.5,212.5C 98.7054,206.122 98.3721,199.789 97.5,193.5C 94.001,193.259 93.6677,194.092 96.5,196C 95.1509,196.772 94.3176,197.939 94,199.5C 93.2303,198.402 92.397,198.402 91.5,199.5C 91.5,198.167 91.5,196.833 91.5,195.5C 91.8503,192.278 92.5169,189.112 93.5,186C 92.3262,183.15 90.9928,180.316 89.5,177.5C 90.6076,174.941 91.9409,172.608 93.5,170.5 Z"/></g>
<g><path style="opacity:1" fill="#d7d9ea" d="M 150.5,213.5 C 151.866,216.713 153.866,219.546 156.5,222C 152.461,221.655 148.794,220.155 145.5,217.5C 144.223,223.609 145.556,229.109 149.5,234C 144.673,234.884 140.006,234.384 135.5,232.5C 134.479,233.002 134.312,233.668 135,234.5C 136.715,236.759 138.548,238.926 140.5,241C 136.141,241.534 131.808,241.368 127.5,240.5C 123.712,238.94 120.712,236.44 118.5,233C 120.421,232.64 122.088,231.806 123.5,230.5C 117.321,226.156 112.821,220.489 110,213.5C 109.333,209.833 109.333,206.167 110,202.5C 111.167,203.667 112.333,204.833 113.5,206C 114.332,206.688 114.998,206.521 115.5,205.5C 114.304,196.282 112.97,187.116 111.5,178C 111.833,177.5 112.167,177 112.5,176.5C 116.167,175.167 119.833,175.167 123.5,176.5C 126.827,193.134 135.827,205.468 150.5,213.5 Z"/></g>
<g><path style="opacity:1" fill="#898abc" d="M 283.5,164.5 C 284.789,173.7 284.622,183.033 283,192.5C 280.768,197.559 277.601,201.892 273.5,205.5C 272.304,204.441 271.637,203.107 271.5,201.5C 274.161,197.995 276.661,194.328 279,190.5C 281.224,183.956 280.724,177.622 277.5,171.5C 278.286,169.959 279.286,168.626 280.5,167.5C 281.5,167.5 282.5,167.5 283.5,167.5C 283.5,166.5 283.5,165.5 283.5,164.5 Z"/></g>
<g><path style="opacity:1" fill="#d7d9eb" d="M 314.5,240.5 C 309.929,241.977 305.262,242.477 300.5,242C 303.776,239.212 305.776,236.045 306.5,232.5C 301.972,234.281 297.305,234.781 292.5,234C 296.682,229.153 298.015,223.653 296.5,217.5C 286.742,223.451 285.409,222.118 292.5,213.5C 306.764,205.04 315.431,192.54 318.5,176C 322.537,175.393 326.537,175.56 330.5,176.5C 329.111,186.283 327.777,196.116 326.5,206C 326.667,206.5 326.833,207 327,207.5C 328.667,205.833 330.333,204.167 332,202.5C 333.562,209.507 332.229,215.841 328,221.5C 324.942,225.062 321.442,228.062 317.5,230.5C 319.5,231.333 321.5,232.167 323.5,233C 321.288,236.44 318.288,238.94 314.5,240.5 Z"/></g>
<g><path style="opacity:1" fill="#8384b4" d="M 158.5,164.5 C 158.34,166.199 158.506,167.866 159,169.5C 159.417,168.244 160.25,167.577 161.5,167.5C 164.716,169.615 165.216,172.282 163,175.5C 162.333,180.167 162.333,184.833 163,189.5C 164.912,193.902 167.412,197.902 170.5,201.5C 170.471,203.824 169.471,204.99 167.5,205C 159.433,196.68 156.1,186.68 157.5,175C 157.501,171.317 157.835,167.817 158.5,164.5 Z"/></g>
<g><path style="opacity:1" fill="#fd972c" d="M 98.5,212.5 C 97.8423,213.398 97.1757,214.398 96.5,215.5C 94.2521,210.04 93.0855,210.373 93,216.5C 91.971,210.877 91.471,205.21 91.5,199.5C 92.397,198.402 93.2303,198.402 94,199.5C 94.3176,197.939 95.1509,196.772 96.5,196C 93.6677,194.092 94.001,193.259 97.5,193.5C 98.3721,199.789 98.7054,206.122 98.5,212.5 Z"/></g>
<g><path style="opacity:1" fill="#e48631" d="M 348.5,184.5 C 349.82,190.115 350.986,195.782 352,201.5C 352.949,209.09 351.949,216.423 349,223.5C 345.937,231.294 342.104,238.628 337.5,245.5C 337.979,242.936 338.645,240.436 339.5,238C 339.043,237.586 338.709,237.086 338.5,236.5C 339.365,236.436 340.365,236.103 341.5,235.5C 344.214,228.559 346.547,221.559 348.5,214.5C 346.857,214.48 345.524,215.147 344.5,216.5C 343.914,216.291 343.414,215.957 343,215.5C 342.242,217.769 342.409,219.936 343.5,222C 342.551,222.617 341.718,222.451 341,221.5C 339.296,223.373 337.463,225.04 335.5,226.5C 340.775,219.077 343.108,210.744 342.5,201.5C 343.639,205.301 344.472,209.301 345,213.5C 345.192,211.423 345.692,209.423 346.5,207.5C 347.48,208.981 348.647,210.315 350,211.5C 350.667,207.5 350.667,203.5 350,199.5C 348.289,194.419 347.789,189.419 348.5,184.5 Z"/></g>
<g><path style="opacity:1" fill="#e9852f" d="M 91.5,195.5 C 91.5,196.833 91.5,198.167 91.5,199.5C 91.471,205.21 91.971,210.877 93,216.5C 93.0855,210.373 94.2521,210.04 96.5,215.5C 97.1757,214.398 97.8423,213.398 98.5,212.5C 98.8333,212.5 99.1667,212.5 99.5,212.5C 101.009,215.678 102.342,219.011 103.5,222.5C 101.983,222.489 100.816,221.823 100,220.5C 99.5078,221.549 99.6744,222.549 100.5,223.5C 99.7528,223.736 98.9195,224.07 98,224.5C 97.6667,223.167 97.3333,221.833 97,220.5C 96.4138,223.729 96.9138,226.729 98.5,229.5C 97.7777,228.449 96.7777,227.782 95.5,227.5C 89.4277,217.345 88.0944,206.678 91.5,195.5 Z"/></g>
<g><path style="opacity:1" fill="#ededef" d="M 270.5,249.5 C 272.242,246.393 273.575,243.059 274.5,239.5C 271.882,239.779 269.382,240.446 267,241.5C 266.847,231.081 265.847,220.748 264,210.5C 263.148,209.429 262.315,208.429 261.5,207.5C 257.529,193.685 248.529,185.851 234.5,184C 227.893,186.975 220.893,188.141 213.5,187.5C 213.167,187.5 212.833,187.5 212.5,187.5C 212.082,186.778 211.416,186.278 210.5,186C 199.84,184.076 191.34,187.576 185,196.5C 184.08,199.938 182.413,202.938 180,205.5C 179.308,208.936 178.308,212.27 177,215.5C 177.402,224.774 177.069,234.107 176,243.5C 174.644,242.62 173.144,242.286 171.5,242.5C 172.08,247.825 174.414,252.325 178.5,256C 176.389,256.845 174.389,257.678 172.5,258.5C 170.163,256.334 167.663,254.334 165,252.5C 164.333,251.833 164.333,251.167 165,250.5C 167.493,252.672 170.326,253.506 173.5,253C 167.92,246.588 162.92,239.754 158.5,232.5C 158.833,232.167 159.167,231.833 159.5,231.5C 163.221,234.027 167.221,236.027 171.5,237.5C 169.981,221.583 173.814,206.916 183,193.5C 202.398,174.478 224.232,171.311 248.5,184C 258.658,191.47 265.492,201.304 269,213.5C 270.356,221.095 270.856,228.762 270.5,236.5C 274.697,235.404 278.697,233.738 282.5,231.5C 282.833,231.833 283.167,232.167 283.5,232.5C 279.874,238.775 275.54,244.442 270.5,249.5 Z"/></g>
<g><path style="opacity:1" fill="#e93534" d="M 244.5,197.5 C 244.958,202.551 243.958,207.217 241.5,211.5C 239.967,213.355 238.3,215.188 236.5,217C 235.056,217.781 233.723,217.614 232.5,216.5C 234.477,213.688 236.644,211.022 239,208.5C 239.667,205.5 239.667,202.5 239,199.5C 238.311,198.643 237.478,197.977 236.5,197.5C 235.686,199.766 235.186,202.1 235,204.5C 234.329,205.252 233.496,205.586 232.5,205.5C 229.058,206.172 226.391,205.172 224.5,202.5C 227.228,204.288 230.228,204.788 233.5,204C 234.788,201.534 234.788,199.034 233.5,196.5C 235.724,195.22 237.724,195.553 239.5,197.5C 240.631,195.926 240.798,194.259 240,192.5C 234.116,187.083 228.45,187.416 223,193.5C 222.506,195.134 222.34,196.801 222.5,198.5C 221.566,197.432 221.232,196.099 221.5,194.5C 224.335,187.839 229.335,185.673 236.5,188C 240.47,190.131 243.137,193.298 244.5,197.5 Z"/></g>
<g><path style="opacity:1" fill="#ebc6d6" d="M 241.5,211.5 C 241.038,213.757 240.038,215.757 238.5,217.5C 240.095,218.434 241.761,218.434 243.5,217.5C 236.853,220.818 232.853,226.152 231.5,233.5C 231.64,235.03 232.307,236.03 233.5,236.5C 233.294,238.549 232.461,238.883 231,237.5C 230.082,233.257 230.582,229.257 232.5,225.5C 232.32,224.446 231.987,223.446 231.5,222.5C 232.833,222.167 234.167,221.833 235.5,221.5C 233.604,220.534 231.604,220.201 229.5,220.5C 230.461,217.574 231.127,214.574 231.5,211.5C 232.675,211.719 233.675,211.386 234.5,210.5C 232.216,208.864 229.882,207.531 227.5,206.5C 229.415,206.784 231.081,206.451 232.5,205.5C 233.496,205.586 234.329,205.252 235,204.5C 235.186,202.1 235.686,199.766 236.5,197.5C 237.478,197.977 238.311,198.643 239,199.5C 239.667,202.5 239.667,205.5 239,208.5C 236.644,211.022 234.477,213.688 232.5,216.5C 233.723,217.614 235.056,217.781 236.5,217C 238.3,215.188 239.967,213.355 241.5,211.5 Z"/></g>
<g><path style="opacity:1" fill="#f7a7ae" d="M 244.5,197.5 C 245.641,200.64 245.808,203.973 245,207.5C 244.34,209.324 243.173,210.657 241.5,211.5C 243.958,207.217 244.958,202.551 244.5,197.5 Z"/></g>
<g><path style="opacity:1" fill="#f3b2be" d="M 220.5,194.5 C 220.833,194.5 221.167,194.5 221.5,194.5C 221.232,196.099 221.566,197.432 222.5,198.5C 222.229,200.38 222.896,201.713 224.5,202.5C 226.391,205.172 229.058,206.172 232.5,205.5C 231.081,206.451 229.415,206.784 227.5,206.5C 225.264,205.611 223.264,204.278 221.5,202.5C 220.264,203.246 218.93,203.579 217.5,203.5C 219.485,200.879 220.485,197.879 220.5,194.5 Z"/></g>
<g><path style="opacity:1" fill="#f0bfcc" d="M 206.5,203.5 C 205.778,203.082 205.278,202.416 205,201.5C 203.898,204.905 204.732,207.572 207.5,209.5C 208.827,212.497 210.161,215.497 211.5,218.5C 207.542,219.124 206.208,221.124 207.5,224.5C 206.167,223.5 204.833,222.5 203.5,221.5C 199.628,219.403 195.961,217.069 192.5,214.5C 195.33,214.694 197.996,215.361 200.5,216.5C 200.483,214.435 200.15,212.435 199.5,210.5C 201.266,212.771 203.266,214.937 205.5,217C 206.944,217.781 208.277,217.614 209.5,216.5C 206.843,213.853 204.677,210.853 203,207.5C 201.662,202.95 202.829,199.283 206.5,196.5C 206.833,196.833 207.167,197.167 207.5,197.5C 206.652,199.409 206.318,201.409 206.5,203.5 Z"/></g>
<g><path style="opacity:1" fill="#f8211f" d="M 218.5,191.5 C 219.906,191.973 220.573,192.973 220.5,194.5C 220.485,197.879 219.485,200.879 217.5,203.5C 216.833,203.833 216.167,204.167 215.5,204.5C 213.208,204.756 211.041,204.423 209,203.5C 209.457,198.767 207.957,194.933 204.5,192C 205.044,190.053 206.377,189.22 208.5,189.5C 211.846,190.17 215.179,190.837 218.5,191.5 Z"/></g>
<g><path style="opacity:1" fill="#eb302f" d="M 212.5,187.5 C 212.833,187.5 213.167,187.5 213.5,187.5C 215.349,188.593 217.016,189.926 218.5,191.5C 215.179,190.837 211.846,190.17 208.5,189.5C 206.377,189.22 205.044,190.053 204.5,192C 207.957,194.933 209.457,198.767 209,203.5C 211.041,204.423 213.208,204.756 215.5,204.5C 212.373,205.96 209.373,205.627 206.5,203.5C 206.318,201.409 206.652,199.409 207.5,197.5C 207.167,197.167 206.833,196.833 206.5,196.5C 202.829,199.283 201.662,202.95 203,207.5C 204.677,210.853 206.843,213.853 209.5,216.5C 208.277,217.614 206.944,217.781 205.5,217C 203.266,214.937 201.266,212.771 199.5,210.5C 197.079,204.935 196.912,199.268 199,193.5C 202.194,188.655 206.694,186.655 212.5,187.5 Z"/></g>
<g><path style="opacity:1" fill="#f91d1c" d="M 224.5,202.5 C 222.896,201.713 222.229,200.38 222.5,198.5C 222.34,196.801 222.506,195.134 223,193.5C 228.45,187.416 234.116,187.083 240,192.5C 240.798,194.259 240.631,195.926 239.5,197.5C 237.724,195.553 235.724,195.22 233.5,196.5C 234.788,199.034 234.788,201.534 233.5,204C 230.228,204.788 227.228,204.288 224.5,202.5 Z"/></g>
<g><path style="opacity:1" fill="#e1d4e5" d="M 261.5,207.5 C 260.514,211.97 260.181,216.637 260.5,221.5C 259.127,221.343 257.793,221.51 256.5,222C 254.473,224.094 252.806,226.427 251.5,229C 250.101,229.595 248.768,229.428 247.5,228.5C 242.559,230.795 237.892,233.461 233.5,236.5C 234.203,234.284 235.536,232.451 237.5,231C 243.691,227.216 250.025,223.716 256.5,220.5C 258.894,218.668 259.894,216.168 259.5,213C 259.333,211.5 259.167,210 259,208.5C 257.708,207.209 256.542,207.209 255.5,208.5C 252.637,213.032 248.637,216.032 243.5,217.5C 241.761,218.434 240.095,218.434 238.5,217.5C 240.038,215.757 241.038,213.757 241.5,211.5C 243.173,210.657 244.34,209.324 245,207.5C 245.808,203.973 245.641,200.64 244.5,197.5C 243.137,193.298 240.47,190.131 236.5,188C 229.335,185.673 224.335,187.839 221.5,194.5C 221.167,194.5 220.833,194.5 220.5,194.5C 220.573,192.973 219.906,191.973 218.5,191.5C 217.016,189.926 215.349,188.593 213.5,187.5C 220.893,188.141 227.893,186.975 234.5,184C 248.529,185.851 257.529,193.685 261.5,207.5 Z"/></g>
<g><path style="opacity:1" fill="#565873" d="M 159.5,217.5 C 161.117,218.038 162.784,218.371 164.5,218.5C 164.817,221.572 164.484,224.572 163.5,227.5C 162.893,227.376 162.56,227.043 162.5,226.5C 163.468,224.393 163.802,222.059 163.5,219.5C 161.62,219.771 160.287,219.104 159.5,217.5 Z"/></g>
<g><path style="opacity:1" fill="#f67f29" d="M 103.5,222.5 C 104.458,222.953 105.292,223.619 106,224.5C 107.017,228.244 108.184,231.911 109.5,235.5C 109.357,237.262 109.691,238.929 110.5,240.5C 107.914,241.48 105.247,241.813 102.5,241.5C 101.705,237.262 100.372,233.262 98.5,229.5C 96.9138,226.729 96.4138,223.729 97,220.5C 97.3333,221.833 97.6667,223.167 98,224.5C 98.9195,224.07 99.7528,223.736 100.5,223.5C 99.6744,222.549 99.5078,221.549 100,220.5C 100.816,221.823 101.983,222.489 103.5,222.5 Z"/></g>
<g><path style="opacity:1" fill="#fc8427" d="M 337.5,245.5 C 333.76,246.259 332.093,244.759 332.5,241C 334.201,236.993 335.201,232.826 335.5,228.5C 335.5,227.833 335.5,227.167 335.5,226.5C 337.463,225.04 339.296,223.373 341,221.5C 341.718,222.451 342.551,222.617 343.5,222C 342.409,219.936 342.242,217.769 343,215.5C 343.414,215.957 343.914,216.291 344.5,216.5C 345.524,215.147 346.857,214.48 348.5,214.5C 346.547,221.559 344.214,228.559 341.5,235.5C 340.365,236.103 339.365,236.436 338.5,236.5C 338.709,237.086 339.043,237.586 339.5,238C 338.645,240.436 337.979,242.936 337.5,245.5 Z"/></g>
<g><path style="opacity:1" fill="#8c8ebd" d="M 292.5,213.5 C 285.409,222.118 286.742,223.451 296.5,217.5C 298.015,223.653 296.682,229.153 292.5,234C 297.305,234.781 301.972,234.281 306.5,232.5C 305.776,236.045 303.776,239.212 300.5,242C 305.262,242.477 309.929,241.977 314.5,240.5C 308.014,244.063 301.014,245.896 293.5,246C 295.874,243.961 297.874,241.628 299.5,239C 294.636,238.547 289.969,239.381 285.5,241.5C 285.167,241.167 284.833,240.833 284.5,240.5C 288.234,234.755 291.568,228.755 294.5,222.5C 289.025,222.882 283.692,224.549 278.5,227.5C 277.516,224.572 277.183,221.572 277.5,218.5C 279.199,218.66 280.866,218.494 282.5,218C 285.736,216.214 289.07,214.714 292.5,213.5 Z"/></g>
<g><path style="opacity:1" fill="#8e8fc0" d="M 150.5,213.5 C 153.378,215.105 156.378,216.439 159.5,217.5C 160.287,219.104 161.62,219.771 163.5,219.5C 163.802,222.059 163.468,224.393 162.5,226.5C 157.705,225.235 153.038,223.568 148.5,221.5C 148.167,221.833 147.833,222.167 147.5,222.5C 150.432,228.755 153.766,234.755 157.5,240.5C 157.167,240.833 156.833,241.167 156.5,241.5C 152.003,240.056 147.503,238.722 143,237.5C 142.333,238.167 142.333,238.833 143,239.5C 150.701,246.667 149.201,248.5 138.5,245C 134.42,244.245 130.754,242.745 127.5,240.5C 131.808,241.368 136.141,241.534 140.5,241C 138.548,238.926 136.715,236.759 135,234.5C 134.312,233.668 134.479,233.002 135.5,232.5C 140.006,234.384 144.673,234.884 149.5,234C 145.556,229.109 144.223,223.609 145.5,217.5C 148.794,220.155 152.461,221.655 156.5,222C 153.866,219.546 151.866,216.713 150.5,213.5 Z"/></g>
<g><path style="opacity:1" fill="#e3702a" d="M 95.5,227.5 C 96.7777,227.782 97.7777,228.449 98.5,229.5C 100.372,233.262 101.705,237.262 102.5,241.5C 105.247,241.813 107.914,241.48 110.5,240.5C 109.691,238.929 109.357,237.262 109.5,235.5C 112.938,240.113 116.604,244.613 120.5,249C 118.75,252.346 116.416,255.18 113.5,257.5C 113.337,255.143 113.503,252.81 114,250.5C 114.654,251.696 115.154,251.696 115.5,250.5C 113.263,249.868 111.597,248.535 110.5,246.5C 109.551,251.448 106.551,253.781 101.5,253.5C 97.7866,253.078 94.12,252.411 90.5,251.5C 90.1373,250.817 89.8039,250.15 89.5,249.5C 94.0405,250.404 98.5405,251.404 103,252.5C 104.011,251.663 105.178,251.33 106.5,251.5C 102.322,243.806 98.6557,235.806 95.5,227.5 Z"/></g>
<g><path style="opacity:1" fill="#ba5a26" d="M 89.5,249.5 C 86.5176,249.037 83.5176,248.704 80.5,248.5C 81.4833,254.481 82.4833,260.481 83.5,266.5C 80.0943,259.879 78.4276,252.879 78.5,245.5C 82.4074,246.466 86.074,247.8 89.5,249.5 Z"/></g>
<g><path style="opacity:1" fill="#d8d9eb" d="M 212.5,187.5 C 206.694,186.655 202.194,188.655 199,193.5C 196.912,199.268 197.079,204.935 199.5,210.5C 200.15,212.435 200.483,214.435 200.5,216.5C 197.996,215.361 195.33,214.694 192.5,214.5C 189.885,213.55 187.885,211.883 186.5,209.5C 186.052,207.535 185.052,207.202 183.5,208.5C 182.438,211.103 182.272,213.77 183,216.5C 183.377,217.942 184.21,218.942 185.5,219.5C 187.004,221.836 189.004,223.669 191.5,225C 197.014,227.589 202.347,230.422 207.5,233.5C 209.049,237.997 210.049,238.164 210.5,234C 210.336,230.492 209.336,227.326 207.5,224.5C 206.208,221.124 207.542,219.124 211.5,218.5C 210.161,215.497 208.827,212.497 207.5,209.5C 204.732,207.572 203.898,204.905 205,201.5C 205.278,202.416 205.778,203.082 206.5,203.5C 209.373,205.627 212.373,205.96 215.5,204.5C 216.167,204.167 216.833,203.833 217.5,203.5C 218.93,203.579 220.264,203.246 221.5,202.5C 223.264,204.278 225.264,205.611 227.5,206.5C 229.882,207.531 232.216,208.864 234.5,210.5C 233.675,211.386 232.675,211.719 231.5,211.5C 231.127,214.574 230.461,217.574 229.5,220.5C 231.604,220.201 233.604,220.534 235.5,221.5C 234.167,221.833 232.833,222.167 231.5,222.5C 231.987,223.446 232.32,224.446 232.5,225.5C 230.582,229.257 230.082,233.257 231,237.5C 232.461,238.883 233.294,238.549 233.5,236.5C 237.892,233.461 242.559,230.795 247.5,228.5C 248.768,229.428 250.101,229.595 251.5,229C 252.806,226.427 254.473,224.094 256.5,222C 257.793,221.51 259.127,221.343 260.5,221.5C 260.181,216.637 260.514,211.97 261.5,207.5C 262.315,208.429 263.148,209.429 264,210.5C 265.847,220.748 266.847,231.081 267,241.5C 269.382,240.446 271.882,239.779 274.5,239.5C 273.575,243.059 272.242,246.393 270.5,249.5C 270.489,251.017 269.823,252.184 268.5,253C 270.931,253.252 273.265,252.752 275.5,251.5C 273.222,255.857 269.889,259.857 265.5,263.5C 261.088,268.219 255.755,271.719 249.5,274C 244.099,279.914 237.766,284.414 230.5,287.5C 226.029,287.328 225.696,286.494 229.5,285C 231.141,283.871 232.141,282.371 232.5,280.5C 233.404,279.791 233.737,278.791 233.5,277.5C 224.447,278.17 223.281,275.504 230,269.5C 230.741,266.438 230.575,263.438 229.5,260.5C 230.689,259.571 232.022,259.238 233.5,259.5C 234.386,260.776 235.386,260.776 236.5,259.5C 237.457,255.088 239.79,251.588 243.5,249C 252.58,245.587 258.58,239.253 261.5,230C 261.333,229.5 261.167,229 261,228.5C 254.917,232.459 248.751,236.292 242.5,240C 239.449,243.299 236.782,246.799 234.5,250.5C 228.775,252.941 222.775,253.941 216.5,253.5C 212.937,252.718 209.603,251.384 206.5,249.5C 204.786,245.918 202.453,242.752 199.5,240C 195.931,238.058 192.598,235.892 189.5,233.5C 186.475,232.235 183.642,230.568 181,228.5C 182.761,238.609 188.594,245.442 198.5,249C 202.21,251.588 204.543,255.088 205.5,259.5C 206.614,260.776 207.614,260.776 208.5,259.5C 209.833,259.5 211.167,259.5 212.5,259.5C 210.377,265.621 211.71,270.787 216.5,275C 214.347,277.165 211.681,277.998 208.5,277.5C 209.457,281.631 211.79,284.798 215.5,287C 213.115,287.556 210.782,287.39 208.5,286.5C 203.091,283.266 198.091,279.432 193.5,275C 187.038,272.12 181.371,268.287 176.5,263.5C 174.413,262.415 173.08,260.749 172.5,258.5C 174.389,257.678 176.389,256.845 178.5,256C 174.414,252.325 172.08,247.825 171.5,242.5C 173.144,242.286 174.644,242.62 176,243.5C 177.069,234.107 177.402,224.774 177,215.5C 178.308,212.27 179.308,208.936 180,205.5C 182.413,202.938 184.08,199.938 185,196.5C 191.34,187.576 199.84,184.076 210.5,186C 211.416,186.278 212.082,186.778 212.5,187.5 Z"/></g>
<g><path style="opacity:1" fill="#9495cc" d="M 220.5,223.5 C 222.521,227.197 224.188,231.197 225.5,235.5C 226.904,234.001 227.57,234.334 227.5,236.5C 226.54,238.477 225.54,240.477 224.5,242.5C 225.381,243.971 226.714,244.804 228.5,245C 223.638,249.366 218.638,249.533 213.5,245.5C 215.053,244.561 216.387,243.394 217.5,242C 215.634,239.784 214.8,237.284 215,234.5C 215.667,235.167 216.333,235.833 217,236.5C 217.867,232.068 219.034,227.735 220.5,223.5 Z"/></g>
<g><path style="opacity:1" fill="#0f1014" d="M 233.5,259.5 C 233.508,256.455 233.841,253.455 234.5,250.5C 236.782,246.799 239.449,243.299 242.5,240C 248.751,236.292 254.917,232.459 261,228.5C 261.167,229 261.333,229.5 261.5,230C 258.58,239.253 252.58,245.587 243.5,249C 239.79,251.588 237.457,255.088 236.5,259.5C 235.386,260.776 234.386,260.776 233.5,259.5 Z"/></g>
<g><path style="opacity:1" fill="#0e0e13" d="M 189.5,233.5 C 192.598,235.892 195.931,238.058 199.5,240C 202.453,242.752 204.786,245.918 206.5,249.5C 207.787,252.698 208.453,256.031 208.5,259.5C 207.614,260.776 206.614,260.776 205.5,259.5C 204.543,255.088 202.21,251.588 198.5,249C 188.594,245.442 182.761,238.609 181,228.5C 183.642,230.568 186.475,232.235 189.5,233.5 Z"/></g>
<g><path style="opacity:1" fill="#f2f6f9" d="M 189.5,233.5 C 189.5,232.5 189.5,231.5 189.5,230.5C 187.335,230.884 185.668,230.217 184.5,228.5C 185.167,228.167 185.833,227.833 186.5,227.5C 190.873,228.066 195.207,229.233 199.5,231C 203.152,233.274 204.985,236.441 205,240.5C 202.287,237.948 199.454,235.615 196.5,233.5C 194.265,233.028 191.932,233.028 189.5,233.5 Z"/></g>
<g><path style="opacity:1" fill="#e04144" d="M 203.5,221.5 C 204.833,222.5 206.167,223.5 207.5,224.5C 209.336,227.326 210.336,230.492 210.5,234C 210.049,238.164 209.049,237.997 207.5,233.5C 208.598,232.399 208.765,231.066 208,229.5C 206.677,226.691 205.177,224.025 203.5,221.5 Z"/></g>
<g><path style="opacity:1" fill="#f32724" d="M 255.5,208.5 C 257.95,208.874 258.95,210.374 258.5,213C 258.261,215.635 257.594,218.135 256.5,220.5C 250.025,223.716 243.691,227.216 237.5,231C 235.536,232.451 234.203,234.284 233.5,236.5C 232.307,236.03 231.64,235.03 231.5,233.5C 232.853,226.152 236.853,220.818 243.5,217.5C 248.637,216.032 252.637,213.032 255.5,208.5 Z"/></g>
<g><path style="opacity:1" fill="#f72422" d="M 186.5,209.5 C 187.885,211.883 189.885,213.55 192.5,214.5C 195.961,217.069 199.628,219.403 203.5,221.5C 205.177,224.025 206.677,226.691 208,229.5C 208.765,231.066 208.598,232.399 207.5,233.5C 202.347,230.422 197.014,227.589 191.5,225C 189.004,223.669 187.004,221.836 185.5,219.5C 185.005,217.548 184.672,215.548 184.5,213.5C 184.585,211.667 185.252,210.334 186.5,209.5 Z"/></g>
<g><path style="opacity:1" fill="#df3b40" d="M 186.5,209.5 C 185.252,210.334 184.585,211.667 184.5,213.5C 184.672,215.548 185.005,217.548 185.5,219.5C 184.21,218.942 183.377,217.942 183,216.5C 182.272,213.77 182.438,211.103 183.5,208.5C 185.052,207.202 186.052,207.535 186.5,209.5 Z"/></g>
<g><path style="opacity:1" fill="#e05257" d="M 255.5,208.5 C 256.542,207.209 257.708,207.209 259,208.5C 259.167,210 259.333,211.5 259.5,213C 259.894,216.168 258.894,218.668 256.5,220.5C 257.594,218.135 258.261,215.635 258.5,213C 258.95,210.374 257.95,208.874 255.5,208.5 Z"/></g>
<g><path style="opacity:1" fill="#e16b29" d="M 335.5,228.5 C 335.201,232.826 334.201,236.993 332.5,241C 332.093,244.759 333.76,246.259 337.5,245.5C 336.883,247.229 335.883,248.729 334.5,250C 336.366,250.985 338.366,251.485 340.5,251.5C 348.45,249.512 356.45,247.845 364.5,246.5C 362.896,255.275 360.229,263.609 356.5,271.5C 358.409,265.663 359.742,259.663 360.5,253.5C 360.893,248.678 359.393,247.678 356,250.5C 348.584,252.089 341.084,252.756 333.5,252.5C 333.5,253.5 333.5,254.5 333.5,255.5C 332.325,255.281 331.325,255.614 330.5,256.5C 331.981,257.48 333.315,258.647 334.5,260C 338.486,260.499 342.486,260.666 346.5,260.5C 341.684,261.65 336.684,261.816 331.5,261C 328.019,256.685 324.353,252.518 320.5,248.5C 323.791,245.711 326.958,242.711 330,239.5C 332.326,235.983 334.16,232.317 335.5,228.5 Z"/></g>
<g><path style="opacity:1" fill="#f96a24" d="M 113.5,257.5 C 112.5,257.833 111.833,258.5 111.5,259.5C 104.828,260.774 98.1613,260.774 91.5,259.5C 91.3359,262.187 91.5026,264.854 92,267.5C 92.4983,269.544 93.665,270.878 95.5,271.5C 97.4854,274.798 99.4854,278.131 101.5,281.5C 102.543,284.056 104.21,286.223 106.5,288C 101.353,292.613 97.3526,291.613 94.5,285C 94.6667,284.5 94.8333,284 95,283.5C 95.6667,284.833 96.3333,284.833 97,283.5C 97.6667,282.5 97.6667,281.5 97,280.5C 94.9189,281.333 92.7522,281.333 90.5,280.5C 90.5871,277.261 89.9205,274.261 88.5,271.5C 87.5,271.5 86.5,271.5 85.5,271.5C 85.7709,269.62 85.1042,268.287 83.5,267.5C 83.5,267.167 83.5,266.833 83.5,266.5C 82.4833,260.481 81.4833,254.481 80.5,248.5C 83.5176,248.704 86.5176,249.037 89.5,249.5C 89.8039,250.15 90.1373,250.817 90.5,251.5C 94.12,252.411 97.7866,253.078 101.5,253.5C 106.551,253.781 109.551,251.448 110.5,246.5C 111.597,248.535 113.263,249.868 115.5,250.5C 115.154,251.696 114.654,251.696 114,250.5C 113.503,252.81 113.337,255.143 113.5,257.5 Z"/></g>
<g><path style="opacity:1" fill="#8e90cb" d="M 206.5,249.5 C 209.603,251.384 212.937,252.718 216.5,253.5C 221.689,254.702 227.023,254.702 232.5,253.5C 232.5,255.167 232.5,256.833 232.5,258.5C 228.847,258.123 225.347,258.123 222,258.5C 219.816,258.115 217.982,257.115 216.5,255.5C 214.109,256.191 214.109,257.191 216.5,258.5C 215.311,259.429 213.978,259.762 212.5,259.5C 211.167,259.5 209.833,259.5 208.5,259.5C 208.453,256.031 207.787,252.698 206.5,249.5 Z"/></g>
<g><path style="opacity:1" fill="#8e90be" d="M 234.5,250.5 C 233.841,253.455 233.508,256.455 233.5,259.5C 232.022,259.238 230.689,259.571 229.5,260.5C 230.575,263.438 230.741,266.438 230,269.5C 223.281,275.504 224.447,278.17 233.5,277.5C 233.737,278.791 233.404,279.791 232.5,280.5C 232.141,282.371 231.141,283.871 229.5,285C 225.696,286.494 226.029,287.328 230.5,287.5C 230.567,288.959 230.234,290.292 229.5,291.5C 224.067,292.802 218.734,292.802 213.5,291.5C 212.402,290.603 212.402,289.77 213.5,289C 211.347,288.901 209.681,288.067 208.5,286.5C 210.782,287.39 213.115,287.556 215.5,287C 211.79,284.798 209.457,281.631 208.5,277.5C 211.681,277.998 214.347,277.165 216.5,275C 211.71,270.787 210.377,265.621 212.5,259.5C 213.978,259.762 215.311,259.429 216.5,258.5C 214.109,257.191 214.109,256.191 216.5,255.5C 217.982,257.115 219.816,258.115 222,258.5C 225.347,258.123 228.847,258.123 232.5,258.5C 232.5,256.833 232.5,255.167 232.5,253.5C 227.023,254.702 221.689,254.702 216.5,253.5C 222.775,253.941 228.775,252.941 234.5,250.5 Z"/></g>
<g><path style="opacity:1" fill="#6a6b87" d="M 293.5,254.5 C 291.735,255.461 289.735,255.795 287.5,255.5C 286.022,255.238 284.689,255.571 283.5,256.5C 286.107,257.318 288.774,257.818 291.5,258C 290.956,258.717 290.289,259.217 289.5,259.5C 285.987,258.669 282.321,258.503 278.5,259C 282.527,254.803 287.527,253.303 293.5,254.5 Z"/></g>
<g><path style="opacity:1" fill="#d6d8eb" d="M 135.5,252.5 C 137.042,253.301 138.708,253.634 140.5,253.5C 144.591,254.895 148.924,255.728 153.5,256C 151.1,256.186 148.766,256.686 146.5,257.5C 153.791,265.626 162.124,272.46 171.5,278C 169.627,280.209 167.46,282.042 165,283.5C 164.667,282.833 164.333,282.167 164,281.5C 157.328,286.167 149.995,289.5 142,291.5C 141.235,291.43 140.735,291.097 140.5,290.5C 143.582,288.925 146.249,286.758 148.5,284C 140.398,286.127 132.064,286.794 123.5,286C 121.509,285.626 119.842,284.793 118.5,283.5C 119.552,283.649 120.552,283.483 121.5,283C 117.795,280.155 114.128,277.322 110.5,274.5C 113.785,272.28 117.451,271.113 121.5,271C 125.833,268 130.167,265 134.5,262C 133.149,260.383 131.482,259.216 129.5,258.5C 131.215,256.118 133.215,254.118 135.5,252.5 Z"/></g>
<g><path style="opacity:1" fill="#b45426" d="M 111.5,259.5 C 110.737,260.268 109.737,260.768 108.5,261C 103.177,261.499 97.8437,261.666 92.5,261.5C 92.9205,265.007 93.9205,268.341 95.5,271.5C 93.665,270.878 92.4983,269.544 92,267.5C 91.5026,264.854 91.3359,262.187 91.5,259.5C 98.1613,260.774 104.828,260.774 111.5,259.5 Z"/></g>
<g><path style="opacity:1" fill="#090a13" d="M 232.5,280.5 C 228.32,282.053 224.487,281.387 221,278.5C 218.917,280.04 216.584,281.04 214,281.5C 212.596,281.491 211.43,280.991 210.5,280C 220.912,278.258 222.079,274.091 214,267.5C 213.104,264.975 213.604,262.808 215.5,261C 219.9,260.022 224.067,260.522 228,262.5C 229.577,267.079 228.077,270.079 223.5,271.5C 222.338,278 225.005,280.333 231.5,278.5C 232.298,278.957 232.631,279.624 232.5,280.5 Z"/></g>
<g><path style="opacity:1" fill="#f76a24" d="M 356.5,271.5 C 355.54,276.086 353.54,280.086 350.5,283.5C 350.248,280.756 350.915,278.256 352.5,276C 350.983,274.459 349.816,272.625 349,270.5C 347.957,274.226 347.457,273.893 347.5,269.5C 348.1,266.702 349.1,264.035 350.5,261.5C 349.311,260.571 347.978,260.238 346.5,260.5C 342.486,260.666 338.486,260.499 334.5,260C 333.315,258.647 331.981,257.48 330.5,256.5C 331.325,255.614 332.325,255.281 333.5,255.5C 333.5,254.5 333.5,253.5 333.5,252.5C 341.084,252.756 348.584,252.089 356,250.5C 359.393,247.678 360.893,248.678 360.5,253.5C 359.742,259.663 358.409,265.663 356.5,271.5 Z"/></g>
<g><path style="opacity:1" fill="#d5d8eb" d="M 309.5,252.5 C 308.957,252.56 308.624,252.893 308.5,253.5C 309.833,255.167 311.167,256.833 312.5,258.5C 310.696,259.768 308.696,260.435 306.5,260.5C 306.561,262.592 307.561,264.092 309.5,265C 317.295,268.426 324.962,271.426 332.5,274C 329.172,277.889 325.172,280.889 320.5,283C 321.094,283.464 321.761,283.631 322.5,283.5C 321.158,284.793 319.491,285.626 317.5,286C 309.237,286.986 301.237,286.32 293.5,284C 295.871,286.706 298.537,289.039 301.5,291C 301.272,291.399 300.938,291.565 300.5,291.5C 295.572,290.872 290.905,289.372 286.5,287C 283.421,285.752 280.754,283.919 278.5,281.5C 277.808,282.025 277.308,282.692 277,283.5C 275.045,282.547 273.378,281.213 272,279.5C 271.251,278.365 271.417,277.365 272.5,276.5C 281.207,271.328 288.874,264.995 295.5,257.5C 292.694,256.832 290.028,256.166 287.5,255.5C 289.735,255.795 291.735,255.461 293.5,254.5C 298.681,254.397 303.681,253.397 308.5,251.5C 309.107,251.624 309.44,251.957 309.5,252.5 Z"/></g>
<g><path style="opacity:1" fill="#e8e8ec" d="M 135.5,252.5 C 133.215,254.118 131.215,256.118 129.5,258.5C 131.482,259.216 133.149,260.383 134.5,262C 130.167,265 125.833,268 121.5,271C 117.451,271.113 113.785,272.28 110.5,274.5C 114.128,277.322 117.795,280.155 121.5,283C 120.552,283.483 119.552,283.649 118.5,283.5C 113.117,280.956 108.783,277.122 105.5,272C 114.569,269.802 123.236,266.469 131.5,262C 128.81,261.229 126.144,260.396 123.5,259.5C 126.354,256.812 129.354,254.312 132.5,252C 133.577,251.53 134.577,251.697 135.5,252.5 Z"/></g>
<g><path style="opacity:1" fill="#eaeaee" d="M 309.5,252.5 C 312.792,254.458 315.792,256.791 318.5,259.5C 316.234,260.314 313.9,260.814 311.5,261C 310.167,261.667 310.167,262.333 311.5,263C 317.5,265.667 323.5,268.333 329.5,271C 331.833,271.333 334.167,271.667 336.5,272C 333.152,277.521 328.486,281.355 322.5,283.5C 321.761,283.631 321.094,283.464 320.5,283C 325.172,280.889 329.172,277.889 332.5,274C 324.962,271.426 317.295,268.426 309.5,265C 307.561,264.092 306.561,262.592 306.5,260.5C 308.696,260.435 310.696,259.768 312.5,258.5C 311.167,256.833 309.833,255.167 308.5,253.5C 308.624,252.893 308.957,252.56 309.5,252.5 Z"/></g>
<g><path style="opacity:1" fill="#8c8db6" d="M 176.5,263.5 C 181.371,268.287 187.038,272.12 193.5,275C 198.091,279.432 203.091,283.266 208.5,286.5C 209.681,288.067 211.347,288.901 213.5,289C 212.402,289.77 212.402,290.603 213.5,291.5C 211.345,291.628 209.345,291.128 207.5,290C 197.05,280.608 185.716,272.441 173.5,265.5C 174.602,264.824 175.602,264.158 176.5,263.5 Z"/></g>
<g><path style="opacity:1" fill="#8c8ebf" d="M 140.5,253.5 C 146.882,253.686 153.215,254.353 159.5,255.5C 159.977,256.478 160.643,257.311 161.5,258C 158.144,258.215 154.811,258.215 151.5,258C 160.179,265.33 169.179,272.164 178.5,278.5C 176.076,283.457 172.576,287.457 168,290.5C 167.648,285.89 166.148,285.39 163.5,289C 155.785,292.415 147.785,293.248 139.5,291.5C 139.624,290.893 139.957,290.56 140.5,290.5C 140.735,291.097 141.235,291.43 142,291.5C 149.995,289.5 157.328,286.167 164,281.5C 164.333,282.167 164.667,282.833 165,283.5C 167.46,282.042 169.627,280.209 171.5,278C 162.124,272.46 153.791,265.626 146.5,257.5C 148.766,256.686 151.1,256.186 153.5,256C 148.924,255.728 144.591,254.895 140.5,253.5 Z"/></g>
<g><path style="opacity:1" fill="#8e8eb6" d="M 265.5,263.5 C 266.398,264.158 267.398,264.824 268.5,265.5C 257.473,272.024 247.14,279.524 237.5,288C 234.929,289.454 232.262,290.62 229.5,291.5C 230.234,290.292 230.567,288.959 230.5,287.5C 237.766,284.414 244.099,279.914 249.5,274C 255.755,271.719 261.088,268.219 265.5,263.5 Z"/></g>
<g><path style="opacity:1" fill="#ee5623" d="M 347.5,269.5 C 347.457,273.893 347.957,274.226 349,270.5C 349.816,272.625 350.983,274.459 352.5,276C 350.915,278.256 350.248,280.756 350.5,283.5C 346.978,285.676 344.644,288.676 343.5,292.5C 338.707,297.899 332.707,301.232 325.5,302.5C 327.527,300.153 330.194,298.819 333.5,298.5C 333.5,297.5 333.5,296.5 333.5,295.5C 334.675,295.719 335.675,295.386 336.5,294.5C 335.907,290.34 334.24,289.673 331.5,292.5C 333.167,294.167 332.833,295.167 330.5,295.5C 328.896,295.061 327.396,294.394 326,293.5C 322.108,295.742 317.941,297.075 313.5,297.5C 318.463,294.672 323.797,292.506 329.5,291C 337.534,285.472 343.534,278.305 347.5,269.5 Z"/></g>
<g><path style="opacity:1" fill="#8d8fc1" d="M 287.5,255.5 C 290.028,256.166 292.694,256.832 295.5,257.5C 288.874,264.995 281.207,271.328 272.5,276.5C 271.417,277.365 271.251,278.365 272,279.5C 273.378,281.213 275.045,282.547 277,283.5C 277.308,282.692 277.808,282.025 278.5,281.5C 280.754,283.919 283.421,285.752 286.5,287C 290.905,289.372 295.572,290.872 300.5,291.5C 291.51,293.569 283.177,291.902 275.5,286.5C 274.833,287.5 274.167,288.5 273.5,289.5C 268.775,287.108 265.442,283.441 263.5,278.5C 272.161,272.174 280.828,265.84 289.5,259.5C 290.289,259.217 290.956,258.717 291.5,258C 288.774,257.818 286.107,257.318 283.5,256.5C 284.689,255.571 286.022,255.238 287.5,255.5 Z"/></g>
<g><path style="opacity:0.89" fill="#bd4f29" d="M 350.5,283.5 C 348.889,287.051 346.556,290.051 343.5,292.5C 344.644,288.676 346.978,285.676 350.5,283.5 Z"/></g>
<g><path style="opacity:1" fill="#dc5327" d="M 83.5,267.5 C 85.1042,268.287 85.7709,269.62 85.5,271.5C 86.5,271.5 87.5,271.5 88.5,271.5C 89.9205,274.261 90.5871,277.261 90.5,280.5C 92.7522,281.333 94.9189,281.333 97,280.5C 97.6667,281.5 97.6667,282.5 97,283.5C 96.3333,284.833 95.6667,284.833 95,283.5C 94.8333,284 94.6667,284.5 94.5,285C 97.3526,291.613 101.353,292.613 106.5,288C 104.21,286.223 102.543,284.056 101.5,281.5C 105.194,284.527 108.527,287.86 111.5,291.5C 107.684,289.902 104.684,290.902 102.5,294.5C 102.863,295.183 103.196,295.85 103.5,296.5C 99.933,294.443 96.7663,291.777 94,288.5C 89.4345,282.036 85.9345,275.036 83.5,267.5 Z"/></g>
<g><path style="opacity:1" fill="#de4d27" d="M 111.5,291.5 C 114.733,292.609 118.066,293.442 121.5,294C 127.001,297.089 132.668,299.589 138.5,301.5C 130.885,300.585 123.552,298.751 116.5,296C 117.167,295.667 117.833,295.333 118.5,295C 115.608,294.751 113.275,293.584 111.5,291.5 Z"/></g>
<g><path style="opacity:1" fill="#d6d9ed" d="M 259.5,288.5 C 258.425,287.438 257.425,287.438 256.5,288.5C 258.719,292.944 260.385,297.61 261.5,302.5C 260.5,302.5 259.5,302.5 258.5,302.5C 258.115,309.925 260.115,316.591 264.5,322.5C 269.784,325.975 275.451,328.642 281.5,330.5C 282.984,332.074 284.651,333.407 286.5,334.5C 287.087,333.767 287.087,332.767 286.5,331.5C 290.315,334.127 292.315,337.794 292.5,342.5C 290.784,342.371 289.117,342.038 287.5,341.5C 286.878,339.665 285.544,338.498 283.5,338C 275.567,336.273 267.567,334.94 259.5,334C 255.716,332.788 252.716,330.621 250.5,327.5C 249.012,329.149 248.012,331.149 247.5,333.5C 240.706,327.931 235.873,320.931 233,312.5C 232.751,313.624 232.251,314.624 231.5,315.5C 228.882,311.643 228.882,307.809 231.5,304C 237.701,300.792 243.368,296.959 248.5,292.5C 250.812,289.521 253.479,286.854 256.5,284.5C 258.288,285.283 259.288,286.616 259.5,288.5 Z"/></g>
<g><path style="opacity:1" fill="#fc4a1e" d="M 111.5,291.5 C 113.275,293.584 115.608,294.751 118.5,295C 117.833,295.333 117.167,295.667 116.5,296C 123.552,298.751 130.885,300.585 138.5,301.5C 138.833,301.5 139.167,301.5 139.5,301.5C 144.64,302.488 149.974,302.821 155.5,302.5C 158.287,303.477 161.287,303.81 164.5,303.5C 164.196,306.522 163.696,309.522 163,312.5C 161.509,314.004 159.676,314.837 157.5,315C 157.833,315.333 158.167,315.667 158.5,316C 157.328,316.419 156.328,317.085 155.5,318C 151.759,318.531 148.759,319.531 146.5,321C 147.167,321.333 147.833,321.667 148.5,322C 147.151,322.772 146.318,323.939 146,325.5C 145.667,325.167 145.333,324.833 145,324.5C 144.994,327.264 143.828,329.264 141.5,330.5C 139.681,328.528 138.681,326.195 138.5,323.5C 141.5,320.167 144.5,316.833 147.5,313.5C 149.384,313.288 150.717,312.288 151.5,310.5C 144.871,309.281 138.205,308.281 131.5,307.5C 126.998,305.748 122.665,303.748 118.5,301.5C 115.247,300.402 111.914,299.736 108.5,299.5C 106.326,299.25 104.659,298.25 103.5,296.5C 103.196,295.85 102.863,295.183 102.5,294.5C 104.684,290.902 107.684,289.902 111.5,291.5 Z"/></g>
<g><path style="opacity:1" fill="#902a12" d="M 139.5,301.5 C 148.5,301.5 157.5,301.5 166.5,301.5C 166.768,303.099 166.434,304.432 165.5,305.5C 165.5,304.5 165.5,303.5 165.5,302.5C 162.167,302.5 158.833,302.5 155.5,302.5C 149.974,302.821 144.64,302.488 139.5,301.5 Z"/></g>
<g><path style="opacity:1" fill="#d6d9ee" d="M 186.5,285.5 C 189.167,287.833 191.833,290.167 194.5,292.5C 194.414,293.496 194.748,294.329 195.5,295C 200.26,298.368 205.26,301.368 210.5,304C 213.122,307.535 213.122,311.035 210.5,314.5C 209.575,313.359 208.741,313.359 208,314.5C 205.464,322.243 200.964,328.576 194.5,333.5C 193.851,331.376 193.017,329.376 192,327.5C 189.92,329.123 187.754,330.623 185.5,332C 178.649,333.98 171.649,335.313 164.5,336C 159.558,336.866 155.058,338.7 151,341.5C 150.536,340.906 150.369,340.239 150.5,339.5C 150.263,338.209 150.596,337.209 151.5,336.5C 159.717,334.63 167.717,331.964 175.5,328.5C 175.5,327.5 175.5,326.5 175.5,325.5C 176.873,325.657 178.207,325.49 179.5,325C 180.924,322.782 182.924,321.282 185.5,320.5C 185.023,319.522 184.357,318.689 183.5,318C 184.487,315.195 185.487,312.362 186.5,309.5C 185.338,305.352 184.338,301.185 183.5,297C 184.066,293.041 185.066,289.208 186.5,285.5 Z"/></g>
<g><path style="opacity:1" fill="#e0e2ea" d="M 186.5,285.5 C 185.066,289.208 184.066,293.041 183.5,297C 184.338,301.185 185.338,305.352 186.5,309.5C 185.487,312.362 184.487,315.195 183.5,318C 184.357,318.689 185.023,319.522 185.5,320.5C 182.924,321.282 180.924,322.782 179.5,325C 178.207,325.49 176.873,325.657 175.5,325.5C 175.5,326.5 175.5,327.5 175.5,328.5C 167.717,331.964 159.717,334.63 151.5,336.5C 155.33,329.177 161.33,324.677 169.5,323C 177.251,319.248 180.751,313.082 180,304.5C 174.788,311.198 173.455,310.198 176,301.5C 178.127,295.372 181.127,289.706 185,284.5C 185.383,285.056 185.883,285.389 186.5,285.5 Z"/></g>
<g><path style="opacity:1" fill="#c44324" d="M 325.5,302.5 C 319.987,305.917 313.987,308.25 307.5,309.5C 313.021,306.078 319.021,303.745 325.5,302.5 Z"/></g>
<g><path style="opacity:1" fill="#9e331c" d="M 313.5,297.5 C 311.3,299.64 308.633,301.14 305.5,302C 296.173,302.5 286.839,302.666 277.5,302.5C 277.231,306.931 277.564,311.265 278.5,315.5C 277.504,315.586 276.671,315.252 276,314.5C 275.501,310.179 275.334,305.846 275.5,301.5C 284.839,301.666 294.173,301.5 303.5,301C 306.748,299.54 310.081,298.374 313.5,297.5 Z"/></g>
<g><path style="opacity:1" fill="#d84724" d="M 108.5,299.5 C 111.914,299.736 115.247,300.402 118.5,301.5C 122.665,303.748 126.998,305.748 131.5,307.5C 138.205,308.281 144.871,309.281 151.5,310.5C 150.717,312.288 149.384,313.288 147.5,313.5C 147.611,312.883 147.944,312.383 148.5,312C 134.098,310.92 120.765,306.753 108.5,299.5 Z"/></g>
<g><path style="opacity:1" fill="#c43b1d" d="M 307.5,309.5 C 303.079,310.945 298.412,311.778 293.5,312C 295.5,313.333 297.5,314.667 299.5,316C 300.823,316.816 301.489,317.983 301.5,319.5C 298.161,317.455 294.828,315.455 291.5,313.5C 290.41,312.609 290.41,311.609 291.5,310.5C 296.792,309.505 302.125,309.172 307.5,309.5 Z"/></g>
<g><path style="opacity:1" fill="#f6441f" d="M 325.5,302.5 C 319.021,303.745 313.021,306.078 307.5,309.5C 302.125,309.172 296.792,309.505 291.5,310.5C 290.41,311.609 290.41,312.609 291.5,313.5C 294.828,315.455 298.161,317.455 301.5,319.5C 303.9,321.296 305.567,323.63 306.5,326.5C 306.5,327.5 306.5,328.5 306.5,329.5C 305.194,332.111 303.861,334.778 302.5,337.5C 305.483,343.171 305.149,348.505 301.5,353.5C 301.5,351.833 301.5,350.167 301.5,348.5C 301.827,343.786 301.493,339.12 300.5,334.5C 298.561,330.282 295.894,326.616 292.5,323.5C 291.415,321.413 289.749,320.08 287.5,319.5C 284.352,318.424 281.352,317.091 278.5,315.5C 277.564,311.265 277.231,306.931 277.5,302.5C 286.839,302.666 296.173,302.5 305.5,302C 308.633,301.14 311.3,299.64 313.5,297.5C 317.941,297.075 322.108,295.742 326,293.5C 327.396,294.394 328.896,295.061 330.5,295.5C 332.833,295.167 333.167,294.167 331.5,292.5C 334.24,289.673 335.907,290.34 336.5,294.5C 335.675,295.386 334.675,295.719 333.5,295.5C 333.5,296.5 333.5,297.5 333.5,298.5C 330.194,298.819 327.527,300.153 325.5,302.5 Z"/></g>
<g><path style="opacity:1" fill="#bf4129" d="M 147.5,313.5 C 144.5,316.833 141.5,320.167 138.5,323.5C 138.167,323.5 137.833,323.5 137.5,323.5C 139.833,319.167 143.167,315.833 147.5,313.5 Z"/></g>
<g><path style="opacity:1" fill="#d43b23" d="M 155.5,302.5 C 158.833,302.5 162.167,302.5 165.5,302.5C 165.5,303.5 165.5,304.5 165.5,305.5C 165.5,308.833 165.5,312.167 165.5,315.5C 147.305,320.532 138.972,332.532 140.5,351.5C 139.188,349.257 138.522,346.59 138.5,343.5C 138.612,338.827 139.612,334.493 141.5,330.5C 143.828,329.264 144.994,327.264 145,324.5C 145.333,324.833 145.667,325.167 146,325.5C 146.318,323.939 147.151,322.772 148.5,322C 147.833,321.667 147.167,321.333 146.5,321C 148.759,319.531 151.759,318.531 155.5,318C 156.328,317.085 157.328,316.419 158.5,316C 158.167,315.667 157.833,315.333 157.5,315C 159.676,314.837 161.509,314.004 163,312.5C 163.696,309.522 164.196,306.522 164.5,303.5C 161.287,303.81 158.287,303.477 155.5,302.5 Z"/></g>
<g><path style="opacity:1" fill="#edeef0" d="M 259.5,288.5 C 263.697,294.062 266.363,300.396 267.5,307.5C 267.267,308.932 266.6,309.432 265.5,309C 261.94,302.715 260.773,303.215 262,310.5C 263.002,314.164 264.836,317.331 267.5,320C 272.623,323.044 277.956,325.711 283.5,328C 284.71,329.039 285.71,330.206 286.5,331.5C 287.087,332.767 287.087,333.767 286.5,334.5C 284.651,333.407 282.984,332.074 281.5,330.5C 275.451,328.642 269.784,325.975 264.5,322.5C 260.115,316.591 258.115,309.925 258.5,302.5C 259.5,302.5 260.5,302.5 261.5,302.5C 260.385,297.61 258.719,292.944 256.5,288.5C 257.425,287.438 258.425,287.438 259.5,288.5 Z"/></g>
<g><path style="opacity:1" fill="#862216" d="M 287.5,319.5 C 289.749,320.08 291.415,321.413 292.5,323.5C 290.251,322.92 288.585,321.587 287.5,319.5 Z"/></g>
<g><path style="opacity:1" fill="#8f90c4" d="M 194.5,292.5 C 198.313,294.386 201.979,296.552 205.5,299C 209.027,300.176 212.527,301.342 216,302.5C 218.436,309.837 217.77,316.837 214,323.5C 213.333,322.833 212.667,322.167 212,321.5C 207.871,331.298 200.871,337.965 191,341.5C 190.5,341.167 190,340.833 189.5,340.5C 190.52,338.568 190.687,336.568 190,334.5C 188.269,336.617 186.102,338.117 183.5,339C 174.204,340.109 164.87,340.776 155.5,341C 153.649,341.837 151.816,342.671 150,343.5C 149.235,341.934 149.402,340.601 150.5,339.5C 150.369,340.239 150.536,340.906 151,341.5C 155.058,338.7 159.558,336.866 164.5,336C 171.649,335.313 178.649,333.98 185.5,332C 187.754,330.623 189.92,329.123 192,327.5C 193.017,329.376 193.851,331.376 194.5,333.5C 200.964,328.576 205.464,322.243 208,314.5C 208.741,313.359 209.575,313.359 210.5,314.5C 213.122,311.035 213.122,307.535 210.5,304C 205.26,301.368 200.26,298.368 195.5,295C 194.748,294.329 194.414,293.496 194.5,292.5 Z"/></g>
<g><path style="opacity:1" fill="#8c8ec2" d="M 248.5,292.5 C 243.368,296.959 237.701,300.792 231.5,304C 228.882,307.809 228.882,311.643 231.5,315.5C 232.251,314.624 232.751,313.624 233,312.5C 235.873,320.931 240.706,327.931 247.5,333.5C 248.012,331.149 249.012,329.149 250.5,327.5C 252.716,330.621 255.716,332.788 259.5,334C 267.567,334.94 275.567,336.273 283.5,338C 285.544,338.498 286.878,339.665 287.5,341.5C 278.88,340.724 270.213,340.224 261.5,340C 257.793,339.064 254.626,337.231 252,334.5C 251.747,337.2 251.747,339.867 252,342.5C 241.143,338.862 233.809,331.528 230,320.5C 228.956,321.623 228.29,322.956 228,324.5C 224.444,317.381 223.777,310.048 226,302.5C 233.832,299.833 241.332,296.499 248.5,292.5 Z"/></g>
<g><path style="opacity:1" fill="#9e2a1f" d="M 225.5,335.5 C 223.906,335.08 222.406,334.414 221,333.5C 220.235,333.57 219.735,333.903 219.5,334.5C 218.833,334.833 218.167,335.167 217.5,335.5C 219.907,330.271 222.574,330.271 225.5,335.5 Z"/></g>
<g><path style="opacity:1" fill="#8f2216" d="M 212.5,338.5 C 212.167,339.167 211.833,339.833 211.5,340.5C 210.167,341.5 208.833,342.5 207.5,343.5C 208.167,340.833 209.833,339.167 212.5,338.5 Z"/></g>
<g><path style="opacity:1" fill="#b72d1f" d="M 306.5,326.5 C 311.189,334.115 312.689,342.449 311,351.5C 309.584,357.917 307.918,364.25 306,370.5C 305.667,370.833 305.333,371.167 305,371.5C 303.348,370.601 301.848,369.601 300.5,368.5C 302.467,368.739 304.301,368.406 306,367.5C 307.582,359.019 309.082,350.519 310.5,342C 310.264,337.459 308.93,333.292 306.5,329.5C 306.5,328.5 306.5,327.5 306.5,326.5 Z"/></g>
<g><path style="opacity:1" fill="#af2a1e" d="M 207.5,343.5 C 204.692,348.415 200.359,351.081 194.5,351.5C 194.5,351.167 194.5,350.833 194.5,350.5C 199.553,349.435 203.886,347.101 207.5,343.5 Z"/></g>
<g><path style="opacity:1" fill="#ca2e21" d="M 227.5,349.5 C 233.71,353.436 240.043,357.103 246.5,360.5C 238.482,359.66 232.149,355.994 227.5,349.5 Z"/></g>
<g><path style="opacity:1" fill="#fa2d1b" d="M 211.5,340.5 C 212.693,340.97 213.36,341.97 213.5,343.5C 213.167,344.5 212.833,345.5 212.5,346.5C 211.391,345.41 210.391,345.41 209.5,346.5C 212.179,349.311 211.845,351.811 208.5,354C 204.081,356.542 199.415,358.542 194.5,360C 189.826,360.333 185.16,360.167 180.5,359.5C 180.5,358.5 180.5,357.5 180.5,356.5C 174.286,356.228 168.119,356.562 162,357.5C 159.504,356.007 157.004,354.507 154.5,353C 162.462,351.836 170.462,351.002 178.5,350.5C 183.772,351.4 189.105,351.733 194.5,351.5C 200.359,351.081 204.692,348.415 207.5,343.5C 208.833,342.5 210.167,341.5 211.5,340.5 Z"/></g>
<g><path style="opacity:1" fill="#f72e1c" d="M 306.5,329.5 C 308.93,333.292 310.264,337.459 310.5,342C 309.082,350.519 307.582,359.019 306,367.5C 304.301,368.406 302.467,368.739 300.5,368.5C 298.566,367.89 296.899,366.89 295.5,365.5C 293.744,362.426 291.077,360.426 287.5,359.5C 279.677,358.18 272.01,358.18 264.5,359.5C 264.167,359.5 263.833,359.5 263.5,359.5C 257.862,360.22 252.196,360.553 246.5,360.5C 240.043,357.103 233.71,353.436 227.5,349.5C 226.962,347.883 226.629,346.216 226.5,344.5C 222.527,343.117 218.694,343.45 215,345.5C 215.65,342.876 215.483,340.209 214.5,337.5C 216.144,337.286 217.644,337.62 219,338.5C 219.49,337.207 219.657,335.873 219.5,334.5C 219.735,333.903 220.235,333.57 221,333.5C 222.406,334.414 223.906,335.08 225.5,335.5C 227.246,337.252 229.246,338.585 231.5,339.5C 231.081,342.325 232.081,344.491 234.5,346C 236.884,347.902 239.551,349.069 242.5,349.5C 248.776,351.705 255.11,352.039 261.5,350.5C 270.188,350.413 278.854,350.747 287.5,351.5C 289.685,351.704 291.685,352.37 293.5,353.5C 294.29,354.401 295.29,355.068 296.5,355.5C 299.293,358.427 300.96,357.76 301.5,353.5C 305.149,348.505 305.483,343.171 302.5,337.5C 303.861,334.778 305.194,332.111 306.5,329.5 Z"/></g>
<g><path style="opacity:1" fill="#ae2a1e" d="M 261.5,350.5 C 261.5,349.833 261.833,349.5 262.5,349.5C 268.842,349.334 275.175,349.5 281.5,350C 283.708,350.191 285.708,350.691 287.5,351.5C 278.854,350.747 270.188,350.413 261.5,350.5 Z"/></g>
<g><path style="opacity:1" fill="#280300" d="M 262.5,349.5 C 270.656,348.343 278.99,348.177 287.5,349C 290.014,349.881 292.014,351.381 293.5,353.5C 291.685,352.37 289.685,351.704 287.5,351.5C 285.708,350.691 283.708,350.191 281.5,350C 275.175,349.5 268.842,349.334 262.5,349.5 Z"/></g>
<g><path style="opacity:1" fill="#b9271f" d="M 231.5,339.5 C 235.192,342.862 238.859,346.195 242.5,349.5C 239.551,349.069 236.884,347.902 234.5,346C 232.081,344.491 231.081,342.325 231.5,339.5 Z"/></g>
<g><path style="opacity:1" fill="#d82d1f" d="M 219.5,334.5 C 219.657,335.873 219.49,337.207 219,338.5C 217.644,337.62 216.144,337.286 214.5,337.5C 215.483,340.209 215.65,342.876 215,345.5C 218.694,343.45 222.527,343.117 226.5,344.5C 226.629,346.216 226.962,347.883 227.5,349.5C 226.038,348.542 224.705,347.376 223.5,346C 221.833,345.333 220.167,345.333 218.5,346C 211.216,356.058 201.383,361.225 189,361.5C 179.242,359.706 169.409,359.206 159.5,360C 154.051,362.224 148.717,364.724 143.5,367.5C 143.5,366.5 143.5,365.5 143.5,364.5C 144.873,364.657 146.207,364.49 147.5,364C 148.833,363 148.833,362 147.5,361C 149.473,360.505 151.473,360.338 153.5,360.5C 153.5,359.5 153.5,358.5 153.5,357.5C 154.675,357.719 155.675,357.386 156.5,356.5C 154.997,355.443 153.33,354.776 151.5,354.5C 149.489,355.519 147.489,356.519 145.5,357.5C 146.5,356.167 147.5,354.833 148.5,353.5C 150.734,351.554 153.401,350.387 156.5,350C 163.826,349.5 171.159,349.334 178.5,349.5C 178.5,349.833 178.5,350.167 178.5,350.5C 170.462,351.002 162.462,351.836 154.5,353C 157.004,354.507 159.504,356.007 162,357.5C 168.119,356.562 174.286,356.228 180.5,356.5C 180.5,357.5 180.5,358.5 180.5,359.5C 185.16,360.167 189.826,360.333 194.5,360C 199.415,358.542 204.081,356.542 208.5,354C 211.845,351.811 212.179,349.311 209.5,346.5C 210.391,345.41 211.391,345.41 212.5,346.5C 212.833,345.5 213.167,344.5 213.5,343.5C 213.36,341.97 212.693,340.97 211.5,340.5C 211.833,339.833 212.167,339.167 212.5,338.5C 213.659,336.75 215.326,335.75 217.5,335.5C 218.167,335.167 218.833,334.833 219.5,334.5 Z"/></g>
<g><path style="opacity:1" fill="#3d0404" d="M 178.5,350.5 C 178.5,350.167 178.5,349.833 178.5,349.5C 183.797,350.275 189.13,350.608 194.5,350.5C 194.5,350.833 194.5,351.167 194.5,351.5C 189.105,351.733 183.772,351.4 178.5,350.5 Z"/></g>
<g><path style="opacity:1" fill="#cd3223" d="M 137.5,323.5 C 136.566,327.373 135.066,331.039 133,334.5C 132.054,342.321 132.721,349.987 135,357.5C 136.197,355.117 137.03,355.45 137.5,358.5C 136.673,361.783 136.34,365.116 136.5,368.5C 138.861,368.326 141.194,367.993 143.5,367.5C 141.481,368.933 139.314,370.267 137,371.5C 131.977,360.395 129.977,348.728 131,336.5C 132.143,331.547 134.31,327.214 137.5,323.5 Z"/></g>
<g><path style="opacity:1" fill="#b6261d" d="M 140.5,351.5 C 141.421,352.981 142.588,354.314 144,355.5C 145.406,354.586 146.906,353.92 148.5,353.5C 147.5,354.833 146.5,356.167 145.5,357.5C 141.515,357.56 139.848,355.56 140.5,351.5 Z"/></g>
<g><path style="opacity:1" fill="#9d1d15" d="M 301.5,348.5 C 301.5,350.167 301.5,351.833 301.5,353.5C 300.96,357.76 299.293,358.427 296.5,355.5C 297.675,355.719 298.675,355.386 299.5,354.5C 300.05,352.343 300.717,350.343 301.5,348.5 Z"/></g>
<g><path style="opacity:1" fill="#be281c" d="M 264.5,359.5 C 272.01,358.18 279.677,358.18 287.5,359.5C 291.077,360.426 293.744,362.426 295.5,365.5C 291.138,362.992 286.471,361.159 281.5,360C 275.843,359.501 270.176,359.334 264.5,359.5 Z"/></g>
<g><path style="opacity:1" fill="#fc2e1a" d="M 137.5,323.5 C 137.833,323.5 138.167,323.5 138.5,323.5C 138.681,326.195 139.681,328.528 141.5,330.5C 139.612,334.493 138.612,338.827 138.5,343.5C 138.522,346.59 139.188,349.257 140.5,351.5C 139.848,355.56 141.515,357.56 145.5,357.5C 147.489,356.519 149.489,355.519 151.5,354.5C 153.33,354.776 154.997,355.443 156.5,356.5C 155.675,357.386 154.675,357.719 153.5,357.5C 153.5,358.5 153.5,359.5 153.5,360.5C 151.473,360.338 149.473,360.505 147.5,361C 148.833,362 148.833,363 147.5,364C 146.207,364.49 144.873,364.657 143.5,364.5C 143.5,365.5 143.5,366.5 143.5,367.5C 141.194,367.993 138.861,368.326 136.5,368.5C 136.34,365.116 136.673,361.783 137.5,358.5C 137.03,355.45 136.197,355.117 135,357.5C 132.721,349.987 132.054,342.321 133,334.5C 135.066,331.039 136.566,327.373 137.5,323.5 Z"/></g>
<g><path style="opacity:0.529" fill="#a5251b" d="M 263.5,359.5 C 260.282,360.954 256.782,361.621 253,361.5C 250.639,361.496 248.473,361.163 246.5,360.5C 252.196,360.553 257.862,360.22 263.5,359.5 Z"/></g>
</svg>
